<svg id="svg" version="1.1" xmlns="http://www.w3.org/2000/svg" xmlns:xlink="http://www.w3.org/1999/xlink" width="400" height="400" viewBox="0, 0, 400,400"><g id="svgg"><path id="path0" d="M11.385 0.500 C 11.281 0.775,11.241 90.730,11.298 200.400 L 11.400 399.800 13.745 399.751 C 15.035 399.724,16.205 399.523,16.345 399.305 C 16.485 399.086,17.005 398.781,17.500 398.627 C 17.995 398.472,18.400 398.178,18.400 397.973 C 18.400 397.768,18.670 397.600,19.000 397.600 C 19.330 397.600,19.600 397.440,19.600 397.243 C 19.600 397.047,20.050 396.774,20.600 396.636 C 21.150 396.498,21.600 396.208,21.600 395.992 C 21.600 395.777,21.870 395.600,22.200 395.600 C 22.530 395.600,22.800 395.420,22.800 395.200 C 22.800 394.980,23.166 394.800,23.613 394.800 C 24.059 394.800,24.529 394.530,24.655 394.200 C 24.782 393.870,25.226 393.600,25.643 393.600 C 26.059 393.600,26.400 393.440,26.400 393.243 C 26.400 393.047,26.850 392.774,27.400 392.636 C 27.950 392.498,28.400 392.208,28.400 391.992 C 28.400 391.777,28.670 391.600,29.000 391.600 C 29.330 391.600,29.600 391.423,29.600 391.208 C 29.600 390.992,30.050 390.702,30.600 390.564 C 31.150 390.426,31.600 390.153,31.600 389.957 C 31.600 389.760,31.870 389.600,32.200 389.600 C 32.530 389.600,32.800 389.423,32.800 389.208 C 32.800 388.992,33.250 388.702,33.800 388.564 C 34.350 388.426,34.800 388.153,34.800 387.957 C 34.800 387.760,35.141 387.600,35.557 387.600 C 35.974 387.600,36.418 387.330,36.545 387.000 C 36.671 386.670,37.141 386.400,37.587 386.400 C 38.034 386.400,38.400 386.220,38.400 386.000 C 38.400 385.780,38.670 385.600,39.000 385.600 C 39.330 385.600,39.600 385.432,39.600 385.227 C 39.600 385.022,39.997 384.728,40.481 384.574 C 40.966 384.420,41.596 384.061,41.881 383.776 C 42.305 383.353,42.400 353.173,42.400 219.829 C 42.400 107.827,42.530 56.400,42.813 56.400 C 43.039 56.400,43.329 56.670,43.455 57.000 C 43.582 57.330,43.945 57.600,44.262 57.600 C 44.579 57.600,45.255 58.050,45.765 58.600 C 46.275 59.150,46.896 59.600,47.146 59.600 C 47.396 59.600,47.600 59.777,47.600 59.992 C 47.600 60.208,48.050 60.498,48.600 60.636 C 49.150 60.774,49.600 61.047,49.600 61.243 C 49.600 61.440,49.960 61.600,50.400 61.600 C 50.840 61.600,51.200 61.760,51.200 61.957 C 51.200 62.153,51.684 62.435,52.276 62.583 C 52.868 62.732,53.633 63.176,53.976 63.570 C 54.319 63.963,55.005 64.413,55.500 64.570 C 55.995 64.726,56.400 65.022,56.400 65.227 C 56.400 65.432,56.593 65.600,56.829 65.600 C 57.064 65.600,57.508 65.825,57.815 66.100 C 59.138 67.287,59.591 67.600,59.983 67.600 C 60.212 67.600,60.400 67.777,60.400 67.992 C 60.400 68.208,60.850 68.498,61.400 68.636 C 61.950 68.774,62.400 69.047,62.400 69.243 C 62.400 69.440,62.670 69.600,63.000 69.600 C 63.330 69.600,63.600 69.768,63.600 69.973 C 63.600 70.178,64.005 70.474,64.500 70.630 C 64.995 70.787,65.691 71.249,66.047 71.657 C 66.403 72.066,66.890 72.400,67.129 72.400 C 67.368 72.400,67.992 72.828,68.516 73.352 C 69.039 73.876,69.858 74.428,70.334 74.579 C 70.810 74.730,71.200 75.022,71.200 75.227 C 71.200 75.432,71.470 75.600,71.800 75.600 C 72.130 75.600,72.400 75.760,72.400 75.957 C 72.400 76.153,72.850 76.426,73.400 76.564 C 73.950 76.702,74.400 76.992,74.400 77.208 C 74.400 77.423,74.670 77.600,75.000 77.600 C 75.330 77.600,75.600 77.768,75.600 77.973 C 75.600 78.178,75.990 78.470,76.466 78.621 C 76.942 78.772,77.761 79.324,78.284 79.848 C 78.808 80.372,79.432 80.800,79.671 80.800 C 79.910 80.800,80.397 81.134,80.753 81.543 C 81.109 81.951,81.850 82.427,82.400 82.600 C 82.950 82.773,83.670 83.223,84.000 83.600 C 84.330 83.977,85.005 84.413,85.500 84.570 C 85.995 84.726,86.400 85.022,86.400 85.227 C 86.400 85.432,86.670 85.600,87.000 85.600 C 87.330 85.600,87.600 85.760,87.600 85.955 C 87.600 86.151,88.187 86.421,88.905 86.556 C 89.623 86.691,90.548 87.251,90.961 87.800 C 91.374 88.350,92.035 88.800,92.429 88.800 C 92.823 88.800,93.254 89.139,93.385 89.552 C 93.523 89.987,94.149 90.410,94.866 90.553 C 95.549 90.690,96.398 91.135,96.754 91.544 C 97.109 91.952,97.805 92.413,98.300 92.570 C 98.795 92.726,99.200 93.022,99.200 93.227 C 99.200 93.432,99.404 93.600,99.654 93.600 C 99.904 93.600,100.525 94.050,101.035 94.600 C 101.545 95.150,102.221 95.600,102.538 95.600 C 102.855 95.600,103.218 95.870,103.345 96.200 C 103.471 96.530,103.941 96.800,104.387 96.800 C 104.834 96.800,105.200 96.980,105.200 97.200 C 105.200 97.420,105.470 97.600,105.800 97.600 C 106.130 97.600,106.400 97.768,106.400 97.973 C 106.400 98.178,106.805 98.474,107.300 98.630 C 107.795 98.787,108.470 99.223,108.800 99.600 C 109.130 99.977,109.850 100.427,110.400 100.600 C 110.950 100.773,111.670 101.223,112.000 101.600 C 112.330 101.977,113.005 102.413,113.500 102.570 C 113.995 102.726,114.400 103.022,114.400 103.227 C 114.400 103.432,114.593 103.600,114.829 103.600 C 115.064 103.600,115.508 103.825,115.815 104.100 C 117.138 105.287,117.591 105.600,117.983 105.600 C 118.212 105.600,118.400 105.777,118.400 105.992 C 118.400 106.208,118.850 106.498,119.400 106.636 C 119.950 106.774,120.400 107.047,120.400 107.243 C 120.400 107.440,120.670 107.600,121.000 107.600 C 121.330 107.600,121.600 107.768,121.600 107.973 C 121.600 108.178,122.005 108.474,122.500 108.630 C 122.995 108.787,123.670 109.223,124.000 109.600 C 124.330 109.977,125.005 110.413,125.500 110.570 C 125.995 110.726,126.400 111.022,126.400 111.227 C 126.400 111.432,126.670 111.600,127.000 111.600 C 127.330 111.600,127.600 111.780,127.600 112.000 C 127.600 112.220,127.966 112.400,128.413 112.400 C 128.859 112.400,129.329 112.670,129.455 113.000 C 129.582 113.330,130.007 113.600,130.400 113.600 C 130.793 113.600,131.218 113.870,131.345 114.200 C 131.471 114.530,131.941 114.800,132.387 114.800 C 132.834 114.800,133.200 114.980,133.200 115.200 C 133.200 115.420,133.470 115.600,133.800 115.600 C 134.130 115.600,134.400 115.768,134.400 115.973 C 134.400 116.178,134.805 116.474,135.300 116.630 C 135.795 116.787,136.470 117.223,136.800 117.600 C 137.130 117.977,137.796 118.411,138.280 118.563 C 138.763 118.716,139.270 119.192,139.406 119.620 C 139.543 120.049,140.007 120.400,140.440 120.400 C 140.872 120.400,141.329 120.670,141.455 121.000 C 141.582 121.330,142.026 121.600,142.443 121.600 C 142.859 121.600,143.200 121.760,143.200 121.957 C 143.200 122.153,143.650 122.426,144.200 122.564 C 144.750 122.702,145.200 122.992,145.200 123.208 C 145.200 123.423,145.470 123.600,145.800 123.600 C 146.130 123.600,146.400 123.777,146.400 123.992 C 146.400 124.208,146.815 124.489,147.323 124.616 C 147.831 124.744,148.576 125.287,148.979 125.824 C 149.382 126.361,150.035 126.800,150.429 126.800 C 150.823 126.800,151.254 127.139,151.385 127.552 C 151.523 127.987,152.149 128.410,152.866 128.553 C 153.549 128.690,154.398 129.135,154.754 129.544 C 155.109 129.952,155.805 130.413,156.300 130.570 C 156.795 130.726,157.200 131.022,157.200 131.227 C 157.200 131.432,157.404 131.600,157.654 131.600 C 157.904 131.600,158.525 132.050,159.035 132.600 C 159.545 133.150,160.221 133.600,160.538 133.600 C 160.855 133.600,161.218 133.870,161.345 134.200 C 161.471 134.530,161.941 134.800,162.387 134.800 C 162.834 134.800,163.200 134.980,163.200 135.200 C 163.200 135.420,163.470 135.600,163.800 135.600 C 164.130 135.600,164.400 135.768,164.400 135.973 C 164.400 136.178,164.805 136.474,165.300 136.630 C 165.795 136.787,166.481 137.237,166.824 137.630 C 167.167 138.024,167.932 138.468,168.524 138.617 C 169.116 138.765,169.600 139.047,169.600 139.243 C 169.600 139.440,169.879 139.600,170.219 139.600 C 170.560 139.600,171.255 140.050,171.765 140.600 C 172.275 141.150,172.896 141.600,173.146 141.600 C 173.396 141.600,173.600 141.777,173.600 141.992 C 173.600 142.208,174.050 142.498,174.600 142.636 C 175.150 142.774,175.600 143.047,175.600 143.243 C 175.600 143.440,175.941 143.600,176.357 143.600 C 176.774 143.600,177.218 143.870,177.345 144.200 C 177.471 144.530,177.928 144.800,178.360 144.800 C 178.795 144.800,179.260 145.158,179.400 145.600 C 179.540 146.040,179.977 146.400,180.371 146.400 C 180.765 146.400,181.418 146.839,181.821 147.376 C 182.224 147.913,182.969 148.456,183.477 148.584 C 183.985 148.711,184.400 148.992,184.400 149.208 C 184.400 149.423,184.670 149.600,185.000 149.600 C 185.330 149.600,185.600 149.768,185.600 149.973 C 185.600 150.178,186.005 150.474,186.500 150.630 C 186.995 150.787,187.691 151.249,188.047 151.657 C 188.403 152.066,188.890 152.400,189.129 152.400 C 189.368 152.400,189.992 152.828,190.516 153.352 C 191.039 153.876,191.858 154.428,192.334 154.579 C 192.810 154.730,193.200 155.022,193.200 155.227 C 193.200 155.432,193.470 155.600,193.800 155.600 C 194.130 155.600,194.400 155.777,194.400 155.992 C 194.400 156.208,194.815 156.489,195.323 156.616 C 195.831 156.744,196.576 157.287,196.979 157.824 C 198.071 159.278,201.940 159.263,203.039 157.800 C 203.452 157.250,204.009 156.800,204.277 156.800 C 204.545 156.800,205.192 156.372,205.716 155.848 C 206.239 155.324,207.048 154.775,207.513 154.627 C 207.979 154.480,208.470 154.008,208.606 153.580 C 208.743 153.151,209.207 152.800,209.640 152.800 C 210.072 152.800,210.529 152.530,210.655 152.200 C 210.782 151.870,211.226 151.600,211.643 151.600 C 212.059 151.600,212.400 151.440,212.400 151.243 C 212.400 151.047,212.850 150.774,213.400 150.636 C 213.950 150.498,214.400 150.208,214.400 149.992 C 214.400 149.777,214.604 149.600,214.854 149.600 C 215.104 149.600,215.725 149.150,216.235 148.600 C 216.745 148.050,217.421 147.600,217.738 147.600 C 218.055 147.600,218.418 147.330,218.545 147.000 C 218.671 146.670,219.128 146.400,219.560 146.400 C 219.993 146.400,220.454 146.061,220.585 145.648 C 220.723 145.213,221.349 144.790,222.066 144.647 C 222.749 144.510,223.598 144.065,223.954 143.656 C 224.309 143.248,225.005 142.787,225.500 142.630 C 225.995 142.474,226.400 142.178,226.400 141.973 C 226.400 141.768,226.670 141.600,227.000 141.600 C 227.330 141.600,227.600 141.440,227.600 141.243 C 227.600 141.047,228.050 140.774,228.600 140.636 C 229.150 140.498,229.600 140.208,229.600 139.992 C 229.600 139.777,229.793 139.600,230.029 139.600 C 230.264 139.600,230.708 139.375,231.015 139.100 C 232.338 137.913,232.791 137.600,233.183 137.600 C 233.412 137.600,233.600 137.432,233.600 137.227 C 233.600 137.022,234.005 136.726,234.500 136.570 C 234.995 136.413,235.670 135.977,236.000 135.600 C 236.330 135.223,237.050 134.773,237.600 134.600 C 238.150 134.427,238.870 133.977,239.200 133.600 C 239.530 133.223,240.205 132.787,240.700 132.630 C 241.195 132.474,241.600 132.178,241.600 131.973 C 241.600 131.768,241.870 131.600,242.200 131.600 C 242.530 131.600,242.800 131.423,242.800 131.208 C 242.800 130.992,243.250 130.702,243.800 130.564 C 244.350 130.426,244.800 130.153,244.800 129.957 C 244.800 129.760,245.141 129.600,245.557 129.600 C 245.974 129.600,246.418 129.330,246.545 129.000 C 246.671 128.670,247.128 128.400,247.560 128.400 C 247.993 128.400,248.454 128.061,248.585 127.648 C 248.723 127.213,249.349 126.790,250.066 126.647 C 250.749 126.510,251.598 126.065,251.954 125.656 C 252.309 125.248,252.996 124.789,253.480 124.637 C 253.963 124.484,254.470 124.008,254.606 123.580 C 254.743 123.151,255.207 122.800,255.640 122.800 C 256.072 122.800,256.529 122.530,256.655 122.200 C 256.782 121.870,257.207 121.600,257.600 121.600 C 257.993 121.600,258.418 121.330,258.545 121.000 C 258.671 120.670,259.141 120.400,259.587 120.400 C 260.034 120.400,260.400 120.220,260.400 120.000 C 260.400 119.780,260.670 119.600,261.000 119.600 C 261.330 119.600,261.600 119.423,261.600 119.208 C 261.600 118.992,262.015 118.711,262.523 118.584 C 263.031 118.456,263.776 117.913,264.179 117.376 C 264.582 116.839,265.235 116.400,265.629 116.400 C 266.023 116.400,266.460 116.040,266.600 115.600 C 266.740 115.158,267.205 114.800,267.640 114.800 C 268.072 114.800,268.529 114.530,268.655 114.200 C 268.782 113.870,269.226 113.600,269.643 113.600 C 270.059 113.600,270.400 113.440,270.400 113.243 C 270.400 113.047,270.850 112.774,271.400 112.636 C 271.950 112.498,272.400 112.208,272.400 111.992 C 272.400 111.777,272.604 111.600,272.854 111.600 C 273.104 111.600,273.725 111.150,274.235 110.600 C 274.745 110.050,275.440 109.600,275.781 109.600 C 276.121 109.600,276.400 109.440,276.400 109.243 C 276.400 109.047,276.884 108.765,277.476 108.617 C 278.068 108.468,278.833 108.024,279.176 107.630 C 279.519 107.237,280.205 106.787,280.700 106.630 C 281.195 106.474,281.600 106.178,281.600 105.973 C 281.600 105.768,281.870 105.600,282.200 105.600 C 282.530 105.600,282.800 105.420,282.800 105.200 C 282.800 104.980,283.166 104.800,283.613 104.800 C 284.059 104.800,284.529 104.530,284.655 104.200 C 284.782 103.870,285.145 103.600,285.462 103.600 C 285.779 103.600,286.455 103.150,286.965 102.600 C 287.475 102.050,288.096 101.600,288.346 101.600 C 288.596 101.600,288.800 101.432,288.800 101.227 C 288.800 101.022,289.205 100.726,289.700 100.570 C 290.195 100.413,290.891 99.952,291.246 99.544 C 291.602 99.135,292.451 98.690,293.134 98.553 C 293.851 98.410,294.477 97.987,294.615 97.552 C 294.746 97.139,295.177 96.800,295.571 96.800 C 295.965 96.800,296.618 96.361,297.021 95.824 C 297.424 95.287,298.169 94.744,298.677 94.616 C 299.185 94.489,299.600 94.208,299.600 93.992 C 299.600 93.777,299.870 93.600,300.200 93.600 C 300.530 93.600,300.800 93.423,300.800 93.208 C 300.800 92.992,301.250 92.702,301.800 92.564 C 302.350 92.426,302.800 92.153,302.800 91.957 C 302.800 91.760,303.141 91.600,303.557 91.600 C 303.974 91.600,304.418 91.330,304.545 91.000 C 304.671 90.670,305.128 90.400,305.560 90.400 C 305.993 90.400,306.457 90.049,306.594 89.620 C 306.730 89.192,307.237 88.716,307.720 88.563 C 308.204 88.411,308.870 87.977,309.200 87.600 C 309.530 87.223,310.205 86.787,310.700 86.630 C 311.195 86.474,311.600 86.178,311.600 85.973 C 311.600 85.768,311.870 85.600,312.200 85.600 C 312.530 85.600,312.800 85.420,312.800 85.200 C 312.800 84.980,313.166 84.800,313.613 84.800 C 314.059 84.800,314.529 84.530,314.655 84.200 C 314.782 83.870,315.145 83.600,315.462 83.600 C 315.779 83.600,316.455 83.150,316.965 82.600 C 317.475 82.050,318.096 81.600,318.346 81.600 C 318.596 81.600,318.800 81.443,318.800 81.250 C 318.800 81.058,319.364 80.787,320.054 80.649 C 320.743 80.511,321.598 80.065,321.954 79.656 C 322.309 79.248,323.005 78.787,323.500 78.630 C 323.995 78.474,324.400 78.178,324.400 77.973 C 324.400 77.768,324.670 77.600,325.000 77.600 C 325.330 77.600,325.600 77.440,325.600 77.243 C 325.600 77.047,326.050 76.774,326.600 76.636 C 327.150 76.498,327.600 76.208,327.600 75.992 C 327.600 75.777,327.793 75.600,328.029 75.600 C 328.264 75.600,328.708 75.375,329.015 75.100 C 330.338 73.913,330.791 73.600,331.183 73.600 C 331.412 73.600,331.600 73.432,331.600 73.227 C 331.600 73.022,332.005 72.726,332.500 72.570 C 332.995 72.413,333.670 71.977,334.000 71.600 C 334.330 71.223,335.050 70.773,335.600 70.600 C 336.150 70.427,336.891 69.951,337.247 69.543 C 337.603 69.134,338.090 68.800,338.329 68.800 C 338.568 68.800,339.192 68.372,339.716 67.848 C 340.239 67.324,341.058 66.772,341.534 66.621 C 342.010 66.470,342.400 66.178,342.400 65.973 C 342.400 65.768,342.670 65.600,343.000 65.600 C 343.330 65.600,343.600 65.423,343.600 65.208 C 343.600 64.992,344.050 64.702,344.600 64.564 C 345.150 64.426,345.600 64.153,345.600 63.957 C 345.600 63.760,345.870 63.600,346.200 63.600 C 346.530 63.600,346.800 63.432,346.800 63.227 C 346.800 63.022,347.190 62.730,347.666 62.579 C 348.142 62.428,348.961 61.876,349.484 61.352 C 350.008 60.828,350.632 60.400,350.871 60.400 C 351.110 60.400,351.597 60.066,351.953 59.657 C 352.309 59.249,353.005 58.787,353.500 58.630 C 353.995 58.474,354.400 58.178,354.400 57.973 C 354.400 57.768,354.655 57.600,354.967 57.600 C 355.278 57.600,355.593 57.444,355.667 57.253 C 355.740 57.062,356.204 56.780,356.697 56.627 L 357.595 56.348 357.760 145.874 C 357.851 195.113,357.941 235.940,357.959 236.600 C 358.233 246.295,357.308 314.164,356.900 314.300 C 356.615 314.395,356.400 315.131,356.400 316.010 C 356.400 316.858,356.241 317.651,356.047 317.771 C 355.852 317.891,355.570 318.982,355.418 320.195 C 355.266 321.408,354.975 322.400,354.771 322.400 C 354.567 322.400,354.400 322.839,354.400 323.376 C 354.400 323.913,354.220 324.464,354.000 324.600 C 353.780 324.736,353.600 325.124,353.600 325.463 C 353.600 325.802,353.330 326.691,353.000 327.440 C 352.670 328.188,352.130 329.412,351.800 330.160 C 351.470 330.909,351.200 331.719,351.200 331.960 C 351.200 332.202,351.062 332.400,350.894 332.400 C 350.726 332.400,350.275 333.075,349.893 333.900 C 348.960 335.909,348.303 336.934,347.700 337.320 C 347.425 337.496,347.200 337.972,347.200 338.377 C 347.200 338.783,346.927 339.219,346.594 339.347 C 346.261 339.475,345.811 339.989,345.595 340.490 C 344.956 341.970,344.307 342.824,342.300 344.826 C 341.255 345.868,340.400 346.889,340.400 347.094 C 340.400 347.579,337.579 350.400,337.094 350.400 C 336.889 350.400,335.868 351.255,334.826 352.300 C 332.824 354.307,331.970 354.956,330.490 355.595 C 329.989 355.811,329.475 356.261,329.347 356.594 C 329.219 356.927,328.783 357.200,328.377 357.200 C 327.972 357.200,327.496 357.425,327.320 357.700 C 326.934 358.303,325.909 358.960,323.900 359.893 C 323.075 360.275,322.400 360.726,322.400 360.894 C 322.400 361.062,322.202 361.200,321.960 361.200 C 321.719 361.200,320.909 361.470,320.160 361.800 C 319.412 362.130,318.188 362.670,317.440 363.000 C 316.691 363.330,315.802 363.600,315.463 363.600 C 315.124 363.600,314.736 363.780,314.600 364.000 C 314.464 364.220,313.913 364.400,313.376 364.400 C 312.839 364.400,312.400 364.567,312.400 364.771 C 312.400 364.975,311.408 365.266,310.195 365.418 C 308.982 365.570,307.891 365.852,307.771 366.047 C 307.651 366.241,306.858 366.400,306.010 366.400 C 305.131 366.400,304.395 366.615,304.300 366.900 C 304.172 367.283,301.631 367.400,293.400 367.400 C 285.169 367.400,282.628 367.283,282.500 366.900 C 282.400 366.601,281.624 366.400,280.567 366.400 C 279.595 366.400,278.800 366.241,278.800 366.046 C 278.800 365.851,277.810 365.568,276.600 365.417 C 275.390 365.266,274.400 364.975,274.400 364.771 C 274.400 364.567,273.950 364.400,273.400 364.400 C 272.850 364.400,272.400 364.240,272.400 364.045 C 272.400 363.850,271.590 363.569,270.600 363.421 C 269.610 363.272,268.800 362.982,268.800 362.775 C 268.800 362.569,268.350 362.400,267.800 362.400 C 267.250 362.400,266.800 362.234,266.800 362.032 C 266.800 361.829,266.260 361.545,265.600 361.400 C 264.940 361.255,264.400 360.971,264.400 360.768 C 264.400 360.566,264.040 360.400,263.600 360.400 C 263.160 360.400,262.800 360.240,262.800 360.043 C 262.800 359.847,262.350 359.574,261.800 359.436 C 261.250 359.298,260.800 359.008,260.800 358.792 C 260.800 358.577,260.530 358.400,260.200 358.400 C 259.870 358.400,259.600 358.232,259.600 358.027 C 259.600 357.822,259.195 357.526,258.700 357.370 C 258.205 357.213,257.530 356.777,257.200 356.400 C 256.870 356.023,256.195 355.587,255.700 355.430 C 255.205 355.274,254.800 354.978,254.800 354.773 C 254.800 354.568,254.602 354.400,254.360 354.400 C 254.119 354.400,253.039 353.500,251.962 352.400 C 250.885 351.300,249.820 350.400,249.595 350.400 C 249.081 350.400,246.400 347.667,246.400 347.143 C 246.400 346.930,245.500 345.892,244.400 344.837 C 243.300 343.783,242.400 342.635,242.400 342.287 C 242.400 341.939,242.040 341.540,241.600 341.400 C 241.158 341.260,240.800 340.795,240.800 340.360 C 240.800 339.928,240.530 339.471,240.200 339.345 C 239.870 339.218,239.600 338.793,239.600 338.400 C 239.600 338.007,239.330 337.582,239.000 337.455 C 238.670 337.329,238.400 336.872,238.400 336.440 C 238.400 336.007,238.059 335.546,237.642 335.413 C 237.172 335.264,236.785 334.645,236.624 333.786 C 236.481 333.024,236.192 332.400,235.982 332.400 C 235.772 332.400,235.600 332.130,235.600 331.800 C 235.600 331.470,235.431 331.200,235.225 331.200 C 235.018 331.200,234.728 330.390,234.579 329.400 C 234.431 328.410,234.150 327.600,233.955 327.600 C 233.760 327.600,233.600 327.330,233.600 327.000 C 233.600 326.670,233.437 326.400,233.238 326.400 C 233.038 326.400,232.751 325.500,232.600 324.400 C 232.449 323.300,232.162 322.400,231.962 322.400 C 231.763 322.400,231.600 321.950,231.600 321.400 C 231.600 320.850,231.435 320.400,231.234 320.400 C 231.033 320.400,230.742 319.050,230.587 317.400 C 230.433 315.750,230.147 314.400,229.953 314.400 C 229.759 314.400,229.600 313.500,229.600 312.400 C 229.600 311.300,229.420 310.400,229.200 310.400 C 228.939 310.400,228.800 303.789,228.800 291.366 L 228.800 272.332 231.900 272.617 C 233.605 272.774,235.060 273.059,235.133 273.251 C 235.207 273.443,235.792 273.600,236.433 273.600 C 237.075 273.600,237.600 273.762,237.600 273.959 C 237.600 274.157,238.860 274.445,240.400 274.600 C 241.940 274.755,243.200 275.043,243.200 275.241 C 243.200 275.438,243.740 275.600,244.400 275.600 C 245.060 275.600,245.600 275.754,245.600 275.943 C 245.600 276.365,250.895 276.892,251.768 276.557 C 253.252 275.988,249.272 270.400,247.382 270.400 C 247.062 270.400,246.800 270.240,246.800 270.043 C 246.800 269.847,246.350 269.574,245.800 269.436 C 245.250 269.298,244.800 269.008,244.800 268.792 C 244.800 268.577,244.530 268.400,244.200 268.400 C 243.870 268.400,243.600 268.232,243.600 268.027 C 243.600 267.822,243.195 267.526,242.700 267.370 C 242.205 267.213,241.530 266.777,241.200 266.400 C 240.870 266.023,240.195 265.587,239.700 265.430 C 239.205 265.274,238.800 264.978,238.800 264.773 C 238.800 264.568,238.530 264.400,238.200 264.400 C 237.870 264.400,237.600 264.240,237.600 264.043 C 237.600 263.847,237.150 263.574,236.600 263.436 C 236.050 263.298,235.600 263.008,235.600 262.792 C 235.600 262.577,235.330 262.400,235.000 262.400 C 234.670 262.400,234.400 262.232,234.400 262.027 C 234.400 261.822,233.995 261.526,233.500 261.370 C 233.005 261.213,232.309 260.752,231.954 260.344 C 231.598 259.935,230.749 259.490,230.066 259.353 C 229.349 259.210,228.723 258.787,228.585 258.352 C 228.454 257.939,227.993 257.600,227.560 257.600 C 227.128 257.600,226.671 257.330,226.545 257.000 C 226.418 256.670,225.993 256.400,225.600 256.400 C 225.207 256.400,224.782 256.130,224.655 255.800 C 224.529 255.470,224.072 255.200,223.640 255.200 C 223.207 255.200,222.746 254.861,222.615 254.448 C 222.477 254.013,221.851 253.590,221.134 253.447 C 220.451 253.310,219.602 252.865,219.246 252.456 C 218.891 252.048,218.195 251.587,217.700 251.430 C 217.205 251.274,216.800 250.978,216.800 250.773 C 216.800 250.568,216.530 250.400,216.200 250.400 C 215.870 250.400,215.600 250.223,215.600 250.008 C 215.600 249.792,215.150 249.502,214.600 249.364 C 214.050 249.226,213.600 248.953,213.600 248.757 C 213.600 248.560,213.330 248.400,213.000 248.400 C 212.670 248.400,212.400 248.232,212.400 248.027 C 212.400 247.822,211.995 247.526,211.500 247.370 C 211.005 247.213,210.330 246.777,210.000 246.400 C 209.670 246.023,208.995 245.587,208.500 245.430 C 208.005 245.274,207.600 244.978,207.600 244.773 C 207.600 244.568,207.330 244.400,207.000 244.400 C 206.670 244.400,206.400 244.223,206.400 244.008 C 206.400 243.792,205.950 243.502,205.400 243.364 C 204.850 243.226,204.400 242.953,204.400 242.757 C 204.400 242.560,204.121 242.400,203.781 242.400 C 203.440 242.400,202.745 241.950,202.235 241.400 C 201.725 240.850,201.181 240.400,201.026 240.400 C 200.870 240.400,200.492 240.175,200.185 239.900 C 198.199 238.119,198.266 238.134,197.200 239.200 C 196.279 240.121,196.188 240.648,196.900 240.935 C 197.300 241.096,197.300 241.143,196.900 241.168 C 196.578 241.189,196.400 241.848,196.400 243.024 C 196.400 244.058,196.562 244.747,196.776 244.615 C 197.008 244.471,197.198 258.485,197.276 281.458 C 197.374 310.674,197.506 318.569,197.900 318.700 C 198.210 318.803,198.400 319.615,198.400 320.833 C 198.400 321.915,198.565 322.800,198.766 322.800 C 198.967 322.800,199.258 324.150,199.413 325.800 C 199.567 327.450,199.853 328.800,200.047 328.800 C 200.241 328.800,200.400 329.250,200.400 329.800 C 200.400 330.350,200.571 330.800,200.780 330.800 C 200.989 330.800,201.282 331.880,201.432 333.200 C 201.581 334.520,201.860 335.600,202.052 335.600 C 202.243 335.600,202.400 335.870,202.400 336.200 C 202.400 336.530,202.563 336.800,202.762 336.800 C 202.962 336.800,203.249 337.700,203.400 338.800 C 203.551 339.900,203.838 340.800,204.038 340.800 C 204.237 340.800,204.400 341.160,204.400 341.600 C 204.400 342.040,204.566 342.400,204.768 342.400 C 204.971 342.400,205.255 342.940,205.400 343.600 C 205.545 344.260,205.829 344.800,206.032 344.800 C 206.234 344.800,206.400 345.160,206.400 345.600 C 206.400 346.040,206.566 346.400,206.768 346.400 C 206.971 346.400,207.255 346.940,207.400 347.600 C 207.545 348.260,207.829 348.800,208.032 348.800 C 208.234 348.800,208.400 349.160,208.400 349.600 C 208.400 350.040,208.560 350.400,208.757 350.400 C 208.953 350.400,209.235 350.884,209.383 351.476 C 209.532 352.068,210.001 352.854,210.426 353.223 C 210.851 353.591,211.310 354.451,211.447 355.134 C 211.590 355.851,212.013 356.477,212.448 356.615 C 212.861 356.746,213.200 357.177,213.200 357.571 C 213.200 357.965,213.639 358.618,214.176 359.021 C 214.713 359.424,215.256 360.169,215.384 360.677 C 215.511 361.185,215.792 361.600,216.008 361.600 C 216.223 361.600,216.400 361.870,216.400 362.200 C 216.400 362.530,216.568 362.800,216.773 362.800 C 216.978 362.800,217.257 363.151,217.394 363.580 C 217.530 364.008,217.983 364.467,218.400 364.600 C 218.817 364.733,219.279 365.219,219.426 365.681 C 219.783 366.806,229.774 376.800,230.542 376.800 C 230.874 376.800,231.257 377.151,231.394 377.580 C 231.530 378.008,231.983 378.467,232.400 378.600 C 232.817 378.733,233.270 379.192,233.406 379.620 C 233.543 380.049,234.007 380.400,234.440 380.400 C 234.872 380.400,235.329 380.670,235.455 381.000 C 235.582 381.330,235.945 381.600,236.262 381.600 C 236.579 381.600,237.255 382.050,237.765 382.600 C 238.275 383.150,238.896 383.600,239.146 383.600 C 239.396 383.600,239.600 383.777,239.600 383.992 C 239.600 384.208,240.050 384.498,240.600 384.636 C 241.150 384.774,241.600 385.047,241.600 385.243 C 241.600 385.440,241.941 385.600,242.357 385.600 C 242.774 385.600,243.218 385.870,243.345 386.200 C 243.471 386.530,243.941 386.800,244.387 386.800 C 244.834 386.800,245.200 386.980,245.200 387.200 C 245.200 387.420,245.470 387.600,245.800 387.600 C 246.130 387.600,246.400 387.772,246.400 387.982 C 246.400 388.192,247.030 388.482,247.800 388.626 C 248.570 388.771,249.200 389.049,249.200 389.245 C 249.200 389.440,249.470 389.600,249.800 389.600 C 250.130 389.600,250.400 389.772,250.400 389.982 C 250.400 390.192,251.030 390.482,251.800 390.626 C 252.570 390.771,253.200 391.049,253.200 391.245 C 253.200 391.440,253.470 391.600,253.800 391.600 C 254.130 391.600,254.400 391.778,254.400 391.995 C 254.400 392.213,255.120 392.506,256.000 392.646 C 256.880 392.787,257.600 393.059,257.600 393.251 C 257.600 393.443,258.050 393.600,258.600 393.600 C 259.150 393.600,259.600 393.774,259.600 393.986 C 259.600 394.199,260.500 394.492,261.600 394.638 C 262.700 394.784,263.600 395.060,263.600 395.252 C 263.600 395.443,264.035 395.600,264.567 395.600 C 265.098 395.600,265.594 395.783,265.669 396.006 C 265.743 396.229,267.018 396.525,268.502 396.664 C 269.986 396.802,271.200 397.070,271.200 397.258 C 271.200 397.446,271.725 397.600,272.367 397.600 C 273.008 397.600,273.593 397.771,273.667 397.980 C 273.740 398.189,275.915 398.485,278.500 398.638 C 281.085 398.792,283.200 399.071,283.200 399.259 C 283.200 399.446,287.520 399.600,292.800 399.600 C 298.080 399.600,302.400 399.446,302.400 399.257 C 302.400 399.068,304.425 398.787,306.900 398.632 C 309.375 398.476,311.460 398.181,311.533 397.975 C 311.607 397.769,312.282 397.600,313.033 397.600 C 313.785 397.600,314.400 397.446,314.400 397.257 C 314.400 397.068,315.525 396.797,316.900 396.653 C 318.275 396.510,319.460 396.214,319.533 395.996 C 319.607 395.778,320.102 395.600,320.633 395.600 C 321.165 395.600,321.600 395.443,321.600 395.252 C 321.600 395.061,322.449 394.808,323.487 394.691 C 324.525 394.574,325.440 394.281,325.520 394.039 C 325.601 393.798,326.102 393.600,326.633 393.600 C 327.165 393.600,327.600 393.443,327.600 393.251 C 327.600 393.059,328.320 392.787,329.200 392.646 C 330.080 392.506,330.800 392.213,330.800 391.995 C 330.800 391.778,331.160 391.600,331.600 391.600 C 332.040 391.600,332.400 391.434,332.400 391.232 C 332.400 391.029,332.940 390.745,333.600 390.600 C 334.260 390.455,334.800 390.171,334.800 389.968 C 334.800 389.766,335.160 389.600,335.600 389.600 C 336.040 389.600,336.400 389.434,336.400 389.232 C 336.400 389.029,336.940 388.745,337.600 388.600 C 338.260 388.455,338.800 388.171,338.800 387.968 C 338.800 387.766,339.160 387.600,339.600 387.600 C 340.040 387.600,340.400 387.440,340.400 387.243 C 340.400 387.047,340.850 386.774,341.400 386.636 C 341.950 386.498,342.400 386.208,342.400 385.992 C 342.400 385.777,342.670 385.600,343.000 385.600 C 343.330 385.600,343.600 385.440,343.600 385.243 C 343.600 385.047,344.050 384.774,344.600 384.636 C 345.150 384.498,345.600 384.208,345.600 383.992 C 345.600 383.777,345.793 383.600,346.029 383.600 C 346.264 383.600,346.708 383.375,347.015 383.100 C 348.338 381.913,348.791 381.600,349.183 381.600 C 349.412 381.600,349.600 381.432,349.600 381.227 C 349.600 381.022,349.987 380.731,350.459 380.581 C 350.932 380.431,352.062 379.544,352.970 378.610 C 353.878 377.675,355.012 376.787,355.490 376.635 C 355.968 376.483,356.467 376.017,356.600 375.600 C 356.733 375.183,357.183 374.733,357.600 374.600 C 358.017 374.467,358.467 374.017,358.600 373.600 C 358.733 373.183,359.183 372.733,359.600 372.600 C 360.017 372.467,360.467 372.017,360.600 371.600 C 360.733 371.183,361.183 370.733,361.600 370.600 C 362.017 370.467,362.467 370.017,362.600 369.600 C 362.733 369.183,363.183 368.733,363.600 368.600 C 364.017 368.467,364.470 368.008,364.606 367.580 C 364.743 367.151,365.022 366.800,365.227 366.800 C 365.432 366.800,365.600 366.606,365.600 366.369 C 365.600 366.131,366.320 365.224,367.200 364.353 C 368.080 363.482,368.800 362.572,368.800 362.331 C 368.800 362.091,369.134 361.603,369.543 361.247 C 369.951 360.891,370.411 360.204,370.563 359.720 C 370.716 359.237,371.192 358.730,371.620 358.594 C 372.049 358.457,372.400 357.993,372.400 357.560 C 372.400 357.128,372.670 356.671,373.000 356.545 C 373.330 356.418,373.600 355.974,373.600 355.557 C 373.600 355.141,373.760 354.800,373.957 354.800 C 374.153 354.800,374.426 354.350,374.564 353.800 C 374.702 353.250,374.992 352.800,375.208 352.800 C 375.423 352.800,375.600 352.530,375.600 352.200 C 375.600 351.870,375.772 351.600,375.982 351.600 C 376.192 351.600,376.482 350.970,376.626 350.200 C 376.771 349.430,377.049 348.800,377.245 348.800 C 377.440 348.800,377.600 348.530,377.600 348.200 C 377.600 347.870,377.772 347.600,377.982 347.600 C 378.192 347.600,378.482 346.970,378.626 346.200 C 378.771 345.430,379.049 344.800,379.245 344.800 C 379.440 344.800,379.600 344.530,379.600 344.200 C 379.600 343.870,379.772 343.600,379.982 343.600 C 380.192 343.600,380.482 342.970,380.626 342.200 C 380.771 341.430,381.049 340.800,381.245 340.800 C 381.440 340.800,381.600 340.350,381.600 339.800 C 381.600 339.250,381.757 338.800,381.949 338.800 C 382.141 338.800,382.413 338.080,382.554 337.200 C 382.694 336.320,382.987 335.600,383.205 335.600 C 383.422 335.600,383.600 334.970,383.600 334.200 C 383.600 333.430,383.763 332.800,383.962 332.800 C 384.162 332.800,384.449 331.900,384.600 330.800 C 384.751 329.700,385.038 328.800,385.238 328.800 C 385.437 328.800,385.600 328.095,385.600 327.233 C 385.600 326.372,385.773 325.607,385.984 325.533 C 386.195 325.460,386.491 323.915,386.641 322.100 C 386.792 320.285,387.069 318.800,387.258 318.800 C 387.446 318.800,387.600 317.645,387.600 316.233 C 387.600 314.536,387.769 313.610,388.100 313.500 C 388.499 313.367,388.600 281.664,388.600 156.767 L 388.600 0.200 387.097 0.076 C 386.021 -0.013,385.525 0.129,385.354 0.576 C 385.222 0.919,384.783 1.200,384.377 1.200 C 383.972 1.200,383.496 1.425,383.320 1.700 C 382.960 2.263,382.048 2.858,380.000 3.868 C 379.230 4.248,378.510 4.662,378.400 4.788 C 378.215 5.001,377.614 5.426,374.840 7.305 C 374.268 7.692,373.485 8.118,373.100 8.251 C 372.715 8.384,372.400 8.631,372.400 8.800 C 372.400 8.969,372.085 9.212,371.700 9.342 C 370.899 9.611,369.685 10.370,368.888 11.100 C 368.588 11.375,368.152 11.600,367.918 11.600 C 367.685 11.600,367.203 11.933,366.847 12.340 C 366.491 12.746,365.525 13.204,364.700 13.358 C 363.875 13.511,363.200 13.766,363.200 13.924 C 363.200 14.082,362.525 14.525,361.700 14.907 C 359.745 15.815,358.791 16.421,357.777 17.400 C 356.792 18.351,355.733 19.058,354.490 19.595 C 353.989 19.811,353.475 20.261,353.347 20.594 C 353.219 20.927,352.787 21.200,352.388 21.200 C 351.988 21.200,351.127 21.650,350.473 22.200 C 349.819 22.750,349.099 23.200,348.871 23.200 C 348.644 23.200,348.104 23.650,347.671 24.200 C 347.239 24.750,346.605 25.200,346.262 25.200 C 345.920 25.200,345.496 25.425,345.320 25.700 C 344.962 26.259,344.070 26.844,342.000 27.876 C 340.422 28.662,340.353 28.710,338.347 30.386 C 337.548 31.054,336.695 31.600,336.451 31.600 C 336.206 31.600,335.782 31.960,335.507 32.400 C 335.232 32.840,334.700 33.200,334.324 33.200 C 333.948 33.200,333.496 33.435,333.320 33.722 C 333.144 34.008,332.370 34.553,331.600 34.933 C 329.579 35.928,328.710 36.494,327.803 37.409 C 327.047 38.171,324.427 39.600,323.786 39.600 C 323.626 39.600,323.200 39.915,322.841 40.300 C 322.061 41.137,320.862 41.935,319.900 42.258 C 319.515 42.388,319.200 42.652,319.200 42.847 C 319.200 43.041,318.834 43.200,318.387 43.200 C 317.941 43.200,317.471 43.470,317.345 43.800 C 317.218 44.130,316.895 44.400,316.627 44.400 C 316.359 44.400,315.717 44.850,315.200 45.400 C 314.683 45.950,314.022 46.400,313.730 46.400 C 313.439 46.400,313.200 46.568,313.200 46.773 C 313.200 46.978,312.795 47.274,312.300 47.430 C 311.805 47.587,311.119 48.037,310.776 48.430 C 310.433 48.824,309.656 49.271,309.048 49.424 C 308.441 49.576,307.733 50.038,307.476 50.450 C 307.218 50.863,306.742 51.200,306.417 51.200 C 306.091 51.200,305.457 51.605,305.007 52.100 C 304.193 52.995,303.145 53.755,302.000 54.280 C 301.670 54.431,301.162 54.790,300.871 55.078 C 300.581 55.365,300.086 55.600,299.771 55.600 C 299.457 55.600,299.200 55.759,299.200 55.953 C 299.200 56.148,298.885 56.421,298.500 56.560 C 297.318 56.987,295.996 57.854,295.163 58.748 C 294.726 59.216,294.172 59.600,293.931 59.600 C 293.691 59.600,293.200 59.915,292.841 60.300 C 292.061 61.137,290.862 61.935,289.900 62.258 C 289.515 62.388,289.200 62.652,289.200 62.847 C 289.200 63.041,288.913 63.200,288.562 63.200 C 287.868 63.200,285.737 64.299,284.879 65.100 C 284.584 65.375,284.152 65.600,283.918 65.600 C 283.685 65.600,283.203 65.920,282.847 66.310 C 282.491 66.701,281.678 67.376,281.040 67.810 C 280.403 68.245,279.413 68.917,278.840 69.305 C 278.268 69.692,277.485 70.118,277.100 70.251 C 276.715 70.384,276.400 70.631,276.400 70.800 C 276.400 70.969,276.085 71.212,275.700 71.342 C 274.804 71.643,273.708 72.365,272.425 73.500 C 271.866 73.995,271.264 74.400,271.087 74.400 C 270.911 74.400,270.549 74.577,270.283 74.794 C 268.113 76.564,267.267 77.132,266.400 77.402 C 265.850 77.574,265.127 78.004,264.794 78.357 C 264.052 79.145,262.835 79.944,261.900 80.258 C 261.515 80.388,261.200 80.652,261.200 80.847 C 261.200 81.041,260.834 81.200,260.387 81.200 C 259.941 81.200,259.471 81.470,259.345 81.800 C 259.218 82.130,258.895 82.400,258.627 82.400 C 258.359 82.400,257.717 82.850,257.200 83.400 C 256.683 83.950,256.022 84.400,255.730 84.400 C 255.439 84.400,255.200 84.568,255.200 84.773 C 255.200 84.978,254.795 85.274,254.300 85.430 C 253.805 85.587,253.119 86.037,252.776 86.430 C 252.433 86.824,251.656 87.271,251.048 87.424 C 250.441 87.576,249.733 88.038,249.476 88.450 C 249.218 88.863,248.716 89.200,248.360 89.200 C 248.004 89.200,247.374 89.650,246.961 90.200 C 246.548 90.750,246.055 91.200,245.866 91.200 C 245.467 91.200,242.792 92.427,242.200 92.881 C 241.980 93.050,241.260 93.616,240.600 94.139 C 239.940 94.662,238.950 95.231,238.400 95.402 C 237.850 95.574,237.109 96.049,236.753 96.457 C 236.397 96.866,235.930 97.200,235.715 97.200 C 235.500 97.200,234.981 97.581,234.562 98.046 C 234.143 98.511,233.440 99.051,233.000 99.245 C 232.071 99.655,230.689 100.498,230.400 100.830 C 230.290 100.957,229.573 101.407,228.807 101.830 C 228.041 102.254,227.173 102.825,226.879 103.100 C 226.584 103.375,226.152 103.600,225.918 103.600 C 225.685 103.600,225.203 103.920,224.847 104.310 C 224.491 104.701,223.678 105.376,223.040 105.810 C 222.403 106.245,221.413 106.917,220.840 107.305 C 220.268 107.692,219.485 108.118,219.100 108.251 C 218.715 108.384,218.400 108.631,218.400 108.800 C 218.400 108.969,218.085 109.212,217.700 109.342 C 216.804 109.643,215.708 110.365,214.425 111.500 C 213.866 111.995,213.264 112.400,213.087 112.400 C 212.911 112.400,212.549 112.577,212.283 112.794 C 210.111 114.566,209.267 115.132,208.400 115.399 C 207.850 115.569,207.310 115.828,207.200 115.975 C 207.090 116.122,206.370 116.552,205.600 116.932 C 203.510 117.962,202.703 118.501,201.676 119.550 C 200.596 120.652,199.122 120.779,198.193 119.850 C 197.835 119.493,197.325 119.200,197.060 119.200 C 196.794 119.200,196.317 118.840,196.000 118.400 C 195.683 117.960,195.201 117.600,194.930 117.600 C 194.658 117.600,194.008 117.172,193.484 116.648 C 192.961 116.124,192.142 115.572,191.666 115.421 C 191.190 115.270,190.800 114.978,190.800 114.773 C 190.800 114.568,190.530 114.400,190.200 114.400 C 189.870 114.400,189.600 114.240,189.600 114.043 C 189.600 113.847,189.150 113.574,188.600 113.436 C 188.050 113.298,187.600 113.008,187.600 112.792 C 187.600 112.577,187.330 112.400,187.000 112.400 C 186.670 112.400,186.400 112.232,186.400 112.027 C 186.400 111.822,186.010 111.530,185.534 111.379 C 185.058 111.228,184.239 110.676,183.716 110.152 C 183.192 109.628,182.568 109.200,182.329 109.200 C 182.090 109.200,181.603 108.866,181.247 108.457 C 180.891 108.049,180.150 107.573,179.600 107.400 C 179.050 107.227,178.330 106.777,178.000 106.400 C 177.670 106.023,176.995 105.587,176.500 105.430 C 176.005 105.274,175.600 104.978,175.600 104.773 C 175.600 104.568,175.407 104.400,175.171 104.400 C 174.936 104.400,174.492 104.175,174.185 103.900 C 172.862 102.713,172.409 102.400,172.017 102.400 C 171.788 102.400,171.600 102.223,171.600 102.008 C 171.600 101.792,171.150 101.502,170.600 101.364 C 170.050 101.226,169.600 100.953,169.600 100.757 C 169.600 100.560,169.330 100.400,169.000 100.400 C 168.670 100.400,168.400 100.232,168.400 100.027 C 168.400 99.822,167.995 99.526,167.500 99.370 C 167.005 99.213,166.309 98.751,165.953 98.343 C 165.597 97.934,165.110 97.600,164.871 97.600 C 164.632 97.600,164.008 97.172,163.484 96.648 C 162.961 96.124,162.142 95.572,161.666 95.421 C 161.190 95.270,160.800 94.978,160.800 94.773 C 160.800 94.568,160.530 94.400,160.200 94.400 C 159.870 94.400,159.600 94.228,159.600 94.018 C 159.600 93.808,158.970 93.518,158.200 93.374 C 157.430 93.229,156.800 92.951,156.800 92.755 C 156.800 92.560,156.530 92.400,156.200 92.400 C 155.870 92.400,155.600 92.232,155.600 92.027 C 155.600 91.822,155.195 91.526,154.700 91.370 C 154.205 91.213,153.530 90.777,153.200 90.400 C 152.870 90.023,152.204 89.589,151.720 89.437 C 151.237 89.284,150.730 88.808,150.594 88.380 C 150.457 87.951,149.993 87.600,149.560 87.600 C 149.128 87.600,148.671 87.330,148.545 87.000 C 148.418 86.670,147.974 86.400,147.557 86.400 C 147.141 86.400,146.800 86.240,146.800 86.043 C 146.800 85.847,146.350 85.574,145.800 85.436 C 145.250 85.298,144.800 85.008,144.800 84.792 C 144.800 84.577,144.530 84.400,144.200 84.400 C 143.870 84.400,143.600 84.223,143.600 84.008 C 143.600 83.792,143.185 83.511,142.677 83.384 C 142.169 83.256,141.424 82.713,141.021 82.176 C 140.618 81.639,139.965 81.200,139.571 81.200 C 139.177 81.200,138.746 80.861,138.615 80.448 C 138.477 80.013,137.851 79.590,137.134 79.447 C 136.451 79.310,135.602 78.865,135.246 78.456 C 134.891 78.048,134.195 77.587,133.700 77.430 C 133.205 77.274,132.800 76.978,132.800 76.773 C 132.800 76.568,132.596 76.400,132.346 76.400 C 132.096 76.400,131.475 75.950,130.965 75.400 C 130.455 74.850,129.779 74.400,129.462 74.400 C 129.145 74.400,128.782 74.130,128.655 73.800 C 128.529 73.470,128.059 73.200,127.613 73.200 C 127.166 73.200,126.800 73.020,126.800 72.800 C 126.800 72.580,126.530 72.400,126.200 72.400 C 125.870 72.400,125.600 72.232,125.600 72.027 C 125.600 71.822,125.195 71.526,124.700 71.370 C 124.205 71.213,123.519 70.763,123.176 70.370 C 122.833 69.976,122.068 69.532,121.476 69.383 C 120.884 69.235,120.400 68.953,120.400 68.757 C 120.400 68.560,120.121 68.400,119.781 68.400 C 119.440 68.400,118.745 67.950,118.235 67.400 C 117.725 66.850,117.104 66.400,116.854 66.400 C 116.604 66.400,116.400 66.223,116.400 66.008 C 116.400 65.792,115.950 65.502,115.400 65.364 C 114.850 65.226,114.400 64.953,114.400 64.757 C 114.400 64.560,114.059 64.400,113.643 64.400 C 113.226 64.400,112.782 64.130,112.655 63.800 C 112.529 63.470,112.072 63.200,111.640 63.200 C 111.205 63.200,110.740 62.842,110.600 62.400 C 110.460 61.960,110.023 61.600,109.629 61.600 C 109.235 61.600,108.582 61.161,108.179 60.624 C 107.776 60.087,107.031 59.544,106.523 59.416 C 106.015 59.289,105.600 59.008,105.600 58.792 C 105.600 58.577,105.330 58.400,105.000 58.400 C 104.670 58.400,104.400 58.220,104.400 58.000 C 104.400 57.780,104.034 57.600,103.587 57.600 C 103.141 57.600,102.671 57.330,102.545 57.000 C 102.418 56.670,101.993 56.400,101.600 56.400 C 101.207 56.400,100.782 56.130,100.655 55.800 C 100.529 55.470,100.059 55.200,99.613 55.200 C 99.166 55.200,98.800 55.020,98.800 54.800 C 98.800 54.580,98.530 54.400,98.200 54.400 C 97.870 54.400,97.600 54.232,97.600 54.027 C 97.600 53.822,97.195 53.526,96.700 53.370 C 96.205 53.213,95.530 52.777,95.200 52.400 C 94.870 52.023,94.204 51.589,93.720 51.437 C 93.237 51.284,92.730 50.808,92.594 50.380 C 92.457 49.951,91.993 49.600,91.560 49.600 C 91.128 49.600,90.671 49.330,90.545 49.000 C 90.418 48.670,89.974 48.400,89.557 48.400 C 89.141 48.400,88.800 48.240,88.800 48.043 C 88.800 47.847,88.350 47.574,87.800 47.436 C 87.250 47.298,86.800 47.008,86.800 46.792 C 86.800 46.577,86.530 46.400,86.200 46.400 C 85.870 46.400,85.600 46.232,85.600 46.027 C 85.600 45.822,85.195 45.526,84.700 45.370 C 84.205 45.213,83.530 44.777,83.200 44.400 C 82.870 44.023,82.150 43.573,81.600 43.400 C 81.050 43.227,80.330 42.777,80.000 42.400 C 79.670 42.023,78.995 41.587,78.500 41.430 C 78.005 41.274,77.600 40.978,77.600 40.773 C 77.600 40.568,77.407 40.400,77.171 40.400 C 76.936 40.400,76.492 40.175,76.185 39.900 C 74.862 38.713,74.409 38.400,74.017 38.400 C 73.788 38.400,73.600 38.223,73.600 38.008 C 73.600 37.792,73.150 37.502,72.600 37.364 C 72.050 37.226,71.600 36.953,71.600 36.757 C 71.600 36.560,71.330 36.400,71.000 36.400 C 70.670 36.400,70.400 36.232,70.400 36.027 C 70.400 35.822,69.995 35.526,69.500 35.370 C 69.005 35.213,68.309 34.752,67.954 34.344 C 67.598 33.935,66.749 33.490,66.066 33.353 C 65.349 33.210,64.723 32.787,64.585 32.352 C 64.454 31.939,63.993 31.600,63.560 31.600 C 63.128 31.600,62.671 31.330,62.545 31.000 C 62.418 30.670,62.055 30.400,61.738 30.400 C 61.421 30.400,60.745 29.950,60.235 29.400 C 59.725 28.850,59.104 28.400,58.854 28.400 C 58.604 28.400,58.400 28.223,58.400 28.008 C 58.400 27.792,57.950 27.502,57.400 27.364 C 56.850 27.226,56.400 26.953,56.400 26.757 C 56.400 26.560,56.059 26.400,55.643 26.400 C 55.226 26.400,54.782 26.130,54.655 25.800 C 54.529 25.470,54.072 25.200,53.640 25.200 C 53.205 25.200,52.740 24.842,52.600 24.400 C 52.460 23.960,52.023 23.600,51.629 23.600 C 51.235 23.600,50.582 23.161,50.179 22.624 C 49.776 22.087,49.031 21.544,48.523 21.416 C 48.015 21.289,47.600 21.008,47.600 20.792 C 47.600 20.577,47.330 20.400,47.000 20.400 C 46.670 20.400,46.400 20.240,46.400 20.045 C 46.400 19.849,45.770 19.571,45.000 19.426 C 44.230 19.282,43.600 18.992,43.600 18.782 C 43.600 18.572,43.330 18.400,43.000 18.400 C 42.670 18.400,42.400 18.232,42.400 18.027 C 42.400 17.822,41.995 17.526,41.500 17.370 C 41.005 17.213,40.309 16.751,39.953 16.343 C 39.597 15.934,39.110 15.600,38.871 15.600 C 38.632 15.600,38.008 15.172,37.484 14.648 C 36.961 14.124,36.142 13.572,35.666 13.421 C 35.190 13.270,34.800 12.978,34.800 12.773 C 34.800 12.568,34.530 12.400,34.200 12.400 C 33.870 12.400,33.600 12.220,33.600 12.000 C 33.600 11.780,33.163 11.600,32.629 11.600 C 32.094 11.600,31.387 11.330,31.057 11.000 C 30.727 10.670,30.264 10.400,30.029 10.400 C 29.793 10.400,29.600 10.232,29.600 10.027 C 29.600 9.822,29.195 9.526,28.700 9.370 C 28.205 9.213,27.530 8.777,27.200 8.400 C 26.870 8.023,26.195 7.587,25.700 7.430 C 25.205 7.274,24.800 6.978,24.800 6.773 C 24.800 6.568,24.530 6.400,24.200 6.400 C 23.870 6.400,23.600 6.232,23.600 6.027 C 23.600 5.822,23.195 5.526,22.700 5.370 C 22.205 5.213,21.530 4.777,21.200 4.400 C 20.870 4.023,20.195 3.587,19.700 3.430 C 19.205 3.274,18.800 2.978,18.800 2.773 C 18.800 2.568,18.530 2.400,18.200 2.400 C 17.870 2.400,17.600 2.232,17.600 2.027 C 17.600 1.822,17.203 1.528,16.719 1.374 C 16.234 1.220,15.591 0.848,15.290 0.547 C 14.602 -0.141,11.642 -0.177,11.385 0.500 " stroke="none" fill="#7494fc" fill-rule="evenodd"></path><path id="path1" d="M357.200 239.024 C 357.200 241.567,357.355 243.552,357.544 243.435 C 357.938 243.191,358.405 236.306,358.105 235.160 C 357.587 233.178,357.200 234.831,357.200 239.024 M190.953 265.000 C 190.953 267.640,191.018 268.668,191.097 267.284 C 191.175 265.901,191.174 263.741,191.095 262.484 C 191.016 261.228,190.952 262.360,190.953 265.000 " stroke="none" fill="#7894fc" fill-rule="evenodd"></path><path id="path2" d="M357.200 239.024 C 357.200 241.567,357.355 243.552,357.544 243.435 C 357.938 243.191,358.405 236.306,358.105 235.160 C 357.587 233.178,357.200 234.831,357.200 239.024 M190.953 265.000 C 190.953 267.640,191.018 268.668,191.097 267.284 C 191.175 265.901,191.174 263.741,191.095 262.484 C 191.016 261.228,190.952 262.360,190.953 265.000 " stroke="none" fill="#7894fc" fill-rule="evenodd"></path><path id="path3" d="M357.200 239.024 C 357.200 241.567,357.355 243.552,357.544 243.435 C 357.938 243.191,358.405 236.306,358.105 235.160 C 357.587 233.178,357.200 234.831,357.200 239.024 M190.953 265.000 C 190.953 267.640,191.018 268.668,191.097 267.284 C 191.175 265.901,191.174 263.741,191.095 262.484 C 191.016 261.228,190.952 262.360,190.953 265.000 " stroke="none" fill="#7894fc" fill-rule="evenodd"></path><path id="path4" d="M357.200 239.024 C 357.200 241.567,357.355 243.552,357.544 243.435 C 357.938 243.191,358.405 236.306,358.105 235.160 C 357.587 233.178,357.200 234.831,357.200 239.024 M190.953 265.000 C 190.953 267.640,191.018 268.668,191.097 267.284 C 191.175 265.901,191.174 263.741,191.095 262.484 C 191.016 261.228,190.952 262.360,190.953 265.000 " stroke="none" fill="#7894fc" fill-rule="evenodd"></path></g></svg>